<svg width="67" height="90" viewBox="0 0 67 90" fill="none" xmlns="http://www.w3.org/2000/svg">
<path d="M60.1766 16.68C50.9166 11.15 35.6466 24.47 31.7666 28.1C32.5493 25.7979 33.9052 23.733 35.7066 22.1C35.7488 22.0669 35.7826 22.0243 35.8052 21.9756C35.8278 21.9269 35.8386 21.8736 35.8366 21.82C35.8367 21.7684 35.824 21.7176 35.7996 21.6722C35.7751 21.6268 35.7397 21.5883 35.6966 21.56C34.8388 20.9802 33.8318 20.6607 32.7966 20.64C33.3293 19.9837 34.0137 19.4669 34.7907 19.1342C35.5677 18.8014 36.414 18.6627 37.2566 18.73C37.3188 18.7392 37.3823 18.7299 37.4392 18.7032C37.4961 18.6765 37.5439 18.6337 37.5766 18.58C37.6082 18.5253 37.6249 18.4632 37.6249 18.4C37.6249 18.3368 37.6082 18.2747 37.5766 18.22C37.1678 17.6016 36.6031 17.1021 35.9393 16.7719C35.2756 16.4418 34.5364 16.2928 33.7966 16.34C35.1066 15.34 38.0766 14.98 39.2766 14.94C39.3406 14.9394 39.4031 14.9201 39.4563 14.8846C39.5096 14.8491 39.5514 14.7988 39.5766 14.74C39.6012 14.6827 39.6095 14.6197 39.6007 14.558C39.5919 14.4963 39.5662 14.4381 39.5266 14.39C38.3686 13.0431 36.7269 12.2061 34.9566 12.06C36.6166 10.06 41.5366 9.45998 41.5866 9.44998C41.6568 9.44459 41.7233 9.41621 41.7757 9.3692C41.8282 9.3222 41.8636 9.25921 41.8766 9.19C41.8931 9.15127 41.9017 9.10965 41.9021 9.06757C41.9025 9.02548 41.8946 8.98375 41.8788 8.94473C41.863 8.90572 41.8396 8.87019 41.8101 8.84021C41.7806 8.81023 41.7454 8.78636 41.7066 8.76999C40.1459 7.77614 38.3764 7.15667 36.5366 6.95999C38.5366 4.47999 44.8966 2.95999 44.9666 2.95999C45.0344 2.94411 45.0957 2.90776 45.1423 2.8559C45.1888 2.80403 45.2182 2.73913 45.2266 2.66998C45.2344 2.60176 45.2215 2.53277 45.1893 2.47208C45.1572 2.41139 45.1074 2.36185 45.0466 2.32999C40.7866 0.109987 35.5866 2.26999 35.3466 2.32999C29.3466 5.32999 29.0766 15.28 29.7066 22.17C27.3466 13.8 22.2166 0.69 13.1466 0C12.8466 0 5.77662 -2.3365e-05 1.89662 4.56998C1.85745 4.62559 1.83643 4.69196 1.83643 4.75998C1.83643 4.828 1.85745 4.89436 1.89662 4.94998C1.93159 5.00977 1.98348 5.05784 2.04578 5.0881C2.10809 5.11837 2.17798 5.12947 2.24659 5.12C2.33659 5.12 10.7866 3.74998 14.2466 5.84998C12.1359 6.9444 10.321 8.53285 8.95661 10.48C8.91575 10.5387 8.89384 10.6085 8.89384 10.68C8.89384 10.7515 8.91575 10.8213 8.95661 10.88C8.99731 10.9372 9.05473 10.9804 9.12098 11.0037C9.18723 11.027 9.25906 11.0292 9.32661 11.01C9.39661 11.01 15.6666 9.25999 18.5466 10.96C17.5326 11.4515 16.6272 12.1409 15.8836 12.9875C15.1399 13.8342 14.5732 14.821 14.2166 15.89C14.196 15.9508 14.1935 16.0162 14.2095 16.0784C14.2254 16.1406 14.2592 16.1967 14.3066 16.24C14.3514 16.2851 14.4086 16.3158 14.471 16.3283C14.5333 16.3408 14.5979 16.3344 14.6566 16.31C16.1466 15.76 20.0266 14.67 22.0266 15.41C21.1058 15.6779 20.2756 16.192 19.6253 16.8968C18.9751 17.6017 18.5295 18.4706 18.3366 19.41C18.3269 19.4726 18.3349 19.5366 18.3596 19.5949C18.3843 19.6532 18.4248 19.7035 18.4766 19.74C18.5313 19.7716 18.5934 19.7882 18.6566 19.7882C18.7198 19.7882 18.7819 19.7716 18.8366 19.74C19.8257 19.2307 20.9277 18.9801 22.0398 19.0116C23.1519 19.0431 24.2379 19.3556 25.1966 19.92C23.948 20.4256 22.879 21.2927 22.1266 22.41C22.1021 22.4562 22.0893 22.5077 22.0893 22.56C22.0893 22.6123 22.1021 22.6638 22.1266 22.71C22.1451 22.7593 22.1745 22.8038 22.2126 22.8401C22.2507 22.8765 22.2965 22.9038 22.3466 22.92C25.29 23.9759 27.9088 25.7781 29.9466 28.15C25.0066 26.24 8.24659 20.49 2.36659 28.15C2.22659 28.36 -1.08341 33.35 0.366586 38.24C0.386562 38.3056 0.425902 38.3636 0.47944 38.4064C0.532978 38.4493 0.598262 38.4749 0.666635 38.48H0.716622C0.776567 38.4736 0.833826 38.4518 0.882882 38.4168C0.931938 38.3817 0.971095 38.3346 0.996591 38.28C0.996591 38.21 3.91662 31.77 6.93662 30.28C6.75649 32.2525 7.04428 34.2396 7.77662 36.08C7.79985 36.1458 7.84333 36.2025 7.90083 36.242C7.95832 36.2816 8.02688 36.3019 8.09663 36.3C8.16848 36.2989 8.23814 36.2751 8.29563 36.232C8.35312 36.1889 8.39547 36.1287 8.4166 36.06C8.4166 36.01 10.0666 30.93 12.5266 29.62C12.4171 30.5555 12.4932 31.5034 12.7506 32.4094C13.008 33.3155 13.4416 34.1618 14.0266 34.9C14.0667 34.949 14.1201 34.9855 14.1804 35.005C14.2407 35.0245 14.3054 35.0262 14.3666 35.01C14.4282 34.9975 14.4848 34.9671 14.5293 34.9226C14.5737 34.8782 14.6041 34.8216 14.6166 34.76C14.9066 33.5 15.8766 30.4 17.2466 29.26C17.0376 30.0276 17.0367 30.837 17.2441 31.605C17.4515 32.373 17.8596 33.0719 18.4266 33.63C18.4733 33.672 18.5304 33.7006 18.592 33.713C18.6536 33.7253 18.7174 33.7208 18.7766 33.7C18.8364 33.6765 18.8885 33.637 18.9273 33.5858C18.9661 33.5347 18.9901 33.4739 18.9966 33.41C19.102 32.5062 19.4255 31.6416 19.9395 30.8907C20.4534 30.1399 21.1422 29.5253 21.9466 29.1C21.7474 30.192 21.8726 31.3184 22.3066 32.34C22.3266 32.388 22.358 32.4303 22.3981 32.4634C22.4382 32.4965 22.4857 32.5194 22.5366 32.53C22.5871 32.5411 22.6395 32.5406 22.6897 32.5285C22.74 32.5164 22.7868 32.4929 22.8266 32.46C23.6167 31.8403 24.4798 31.3197 25.3966 30.91C24.9962 31.2794 24.6853 31.7354 24.4878 32.2432C24.2902 32.7509 24.2111 33.2971 24.2566 33.84C24.338 34.7932 24.7945 35.6752 25.5258 36.2921C26.2571 36.9089 27.2033 37.2103 28.1566 37.13C28.9403 37.0612 29.679 36.7341 30.2566 36.2C31.1066 38.42 34.3566 49.06 28.8566 70.2C21.4366 72.43 20.2566 74.77 19.2266 76.84C18.8926 77.5921 18.4476 78.2899 17.9066 78.91C17.3838 79.649 17.0746 80.5177 17.0129 81.4209C16.9512 82.324 17.1393 83.2267 17.5566 84.03C18.9266 86.89 23.4366 90.03 37.0966 88.88C46.4966 88.08 52.2866 85.88 54.3066 82.34C54.7166 81.6619 54.9627 80.8975 55.0252 80.1076C55.0877 79.3177 54.9649 78.5241 54.6666 77.79C52.6666 73.01 47.5466 69.14 42.6666 68.67C41.8866 60.96 39.4966 42.89 33.8366 35.67C34.076 35.695 34.3173 35.695 34.5566 35.67C35.5107 35.5861 36.3926 35.1274 37.0093 34.3946C37.6259 33.6617 37.927 32.7144 37.8466 31.76C37.7844 31.0427 37.508 30.3607 37.0533 29.8026C36.5986 29.2444 35.9865 28.8358 35.2966 28.63C37.2229 28.4626 39.1637 28.6422 41.0266 29.16C41.0718 29.1821 41.1213 29.1935 41.1716 29.1935C41.2219 29.1935 41.2715 29.1821 41.3166 29.16C41.361 29.1322 41.3978 29.094 41.424 29.0487C41.4501 29.0033 41.4648 28.9523 41.4666 28.9C41.4918 27.6563 41.1434 26.4337 40.4666 25.39C41.4828 25.4859 42.4591 25.8332 43.3075 26.4005C44.1559 26.9679 44.8498 27.7375 45.3266 28.64C45.3542 28.6962 45.3969 28.7437 45.4498 28.7773C45.5028 28.8108 45.564 28.829 45.6266 28.83C45.6893 28.829 45.7504 28.8108 45.8034 28.7773C45.8563 28.7437 45.899 28.6962 45.9266 28.64C46.2895 27.8305 46.4254 26.9376 46.3197 26.0568C46.214 25.176 45.8707 24.3406 45.3266 23.64C47.2066 24.19 49.5266 27.04 50.3266 28.24C50.361 28.2896 50.4076 28.3295 50.4619 28.3557C50.5162 28.382 50.5764 28.3938 50.6366 28.39C50.7001 28.3806 50.7594 28.3528 50.8074 28.3102C50.8553 28.2676 50.8898 28.2119 50.9066 28.15C51.2029 27.1583 51.3006 26.1178 51.1943 25.0882C51.0879 24.0587 50.7794 23.0602 50.2866 22.15C53.3566 22.45 57.1366 27.06 57.1766 27.15C57.2215 27.2045 57.2818 27.2442 57.3496 27.2638C57.4174 27.2835 57.4896 27.2821 57.5566 27.26C57.6251 27.2377 57.684 27.1931 57.7239 27.1332C57.7638 27.0733 57.7824 27.0017 57.7766 26.93C57.785 24.7374 57.2708 22.5743 56.2766 20.62C59.9866 20.9 65.6166 26.4 65.6766 26.46C65.7257 26.5085 65.7888 26.5403 65.857 26.5511C65.9251 26.5618 65.995 26.551 66.0566 26.52C66.1185 26.4914 66.17 26.4443 66.204 26.3852C66.238 26.3261 66.2529 26.2579 66.2466 26.19C65.8166 20.62 60.4266 16.85 60.1766 16.68ZM42.2866 72.29C42.1557 73.3407 41.7249 74.3314 41.0457 75.1437C40.3665 75.9559 39.4676 76.5553 38.4566 76.87C35.6166 77.87 31.6066 77.21 29.7066 75.43C29.3196 75.1157 29.0303 74.6976 28.8727 74.2246C28.715 73.7517 28.6956 73.2436 28.8166 72.76L29.0566 71.88C31.5162 72.7941 34.1358 73.1989 36.7566 73.07C38.7979 72.9877 40.7288 72.1208 42.1466 70.65C42.2366 71.56 42.2766 72.14 42.2866 72.29ZM42.0566 69.69C38.6266 74.3 30.7966 71.79 29.2266 71.22C29.6866 69.52 30.09 67.8866 30.4366 66.32C32.2039 67.411 34.2789 67.8956 36.3466 67.7C38.2207 67.5011 40.0291 66.8972 41.6466 65.93C41.8166 67.39 41.9566 68.67 42.0566 69.69ZM41.5566 65.2C35.5566 68.8 31.4366 66.2 30.5566 65.61C30.8966 64.04 31.1766 62.54 31.4266 61.11C33.0389 61.6306 34.7374 61.831 36.4266 61.7C37.9713 61.5775 39.47 61.1166 40.8166 60.35C41.1466 62.08 41.3666 63.77 41.5566 65.2ZM31.5566 60.43C31.8066 58.93 32.0066 57.49 32.1566 56.14C33.4798 56.624 34.893 56.8117 36.2966 56.69C37.6081 56.5788 38.8802 56.1866 40.0266 55.54C40.2966 56.93 40.5266 58.3 40.7366 59.63C39.3494 60.3932 37.8183 60.8586 36.241 60.9963C34.6637 61.1341 33.0751 60.9412 31.5766 60.43H31.5566ZM32.2266 55.43C32.3566 54.15 32.4566 52.93 32.5166 51.78C33.6463 52.1552 34.8403 52.298 36.0266 52.2C37.1248 52.1022 38.1872 51.7605 39.1366 51.2C39.4066 52.39 39.6666 53.6 39.8966 54.79C38.7498 55.4597 37.4682 55.8656 36.1449 55.978C34.8217 56.0904 33.49 55.9067 32.2466 55.44L32.2266 55.43ZM32.5566 51.07C32.5566 50 32.6166 48.99 32.6066 48.07C33.3453 48.2044 34.0984 48.2414 34.8466 48.18C36.0012 48.1021 37.1103 47.7 38.0466 47.02C38.3766 48.18 38.6866 49.37 38.9666 50.57C38.0023 51.1134 36.9312 51.4405 35.8278 51.5286C34.7243 51.6167 33.615 51.4636 32.5766 51.08L32.5566 51.07ZM32.6066 47.34C32.6066 46.15 32.5266 45.06 32.4366 44.06C32.9742 44.1817 33.5275 44.2188 34.0766 44.17C35.0675 44.0806 36.0184 43.7361 36.8366 43.17C37.1866 44.17 37.5266 45.17 37.8366 46.26C37.0926 46.7956 36.2445 47.1694 35.3471 47.3571C34.4498 47.5449 33.523 47.5424 32.6266 47.35L32.6066 47.34ZM32.3766 43.34C32.29 42.5 32.1899 41.73 32.0766 41.03C32.3925 41.0609 32.7107 41.0609 33.0266 41.03C33.9499 40.9656 34.8304 40.6162 35.5466 40.03C35.9166 40.82 36.2566 41.66 36.5966 42.53C36.0059 42.9788 35.3201 43.2861 34.5919 43.4283C33.8638 43.5704 33.1128 43.5436 32.3966 43.35L32.3766 43.34ZM31.9666 40.34C31.8166 39.54 31.6666 38.85 31.5166 38.26C31.7228 38.28 31.9304 38.28 32.1366 38.26C32.8913 38.2083 33.6018 37.885 34.1366 37.35C34.554 37.9946 34.9346 38.6624 35.2766 39.35C34.8371 39.7508 34.3137 40.0486 33.7445 40.2216C33.1754 40.3946 32.5749 40.4384 31.9866 40.35L31.9666 40.34ZM31.3166 37.54C31.1266 36.88 30.9566 36.39 30.8266 36.05H31.2566C31.787 36.0013 32.2997 35.8338 32.7566 35.56C33.1132 35.9435 33.4471 36.3475 33.7566 36.77C33.458 37.102 33.0768 37.3491 32.6517 37.4861C32.2267 37.6231 31.7729 37.6451 31.3366 37.55L31.3166 37.54ZM32.6266 34.85C32.2983 35.075 31.9286 35.2324 31.5389 35.3131C31.1491 35.3938 30.7472 35.3961 30.3566 35.32C29.7377 35.1929 29.1764 34.8691 28.7565 34.397C28.3366 33.9248 28.0806 33.3295 28.0266 32.7C27.9922 32.3221 28.0328 31.9412 28.1461 31.5791C28.2594 31.217 28.4431 30.8809 28.6866 30.59C28.9307 30.287 29.2339 30.0367 29.5777 29.8545C29.9215 29.6723 30.2988 29.5619 30.6866 29.53H31.1166C31.4876 29.5487 31.8512 29.6404 32.1866 29.8C32.6508 30.0188 33.0493 30.3556 33.3424 30.7768C33.6355 31.198 33.8128 31.6887 33.8566 32.2C33.9074 32.7107 33.8222 33.2257 33.6097 33.6929C33.3972 34.1601 33.0649 34.5627 32.6466 34.86L32.6266 34.85ZM35.6266 3.01999C36.9094 2.52295 38.2561 2.20986 39.6266 2.09C41.0588 1.94115 42.5062 2.1084 43.8666 2.57999C41.7766 3.15999 36.8666 4.74 35.6266 7.16C35.5947 7.21095 35.5777 7.26985 35.5777 7.32999C35.5777 7.39012 35.5947 7.44905 35.6266 7.5C35.6579 7.55031 35.7024 7.59095 35.7554 7.61743C35.8083 7.64391 35.8676 7.6552 35.9266 7.64999C37.5259 7.68824 39.0914 8.1174 40.4866 8.89999C38.7066 9.22999 35.0566 10.13 33.9966 12.19C33.9677 12.2402 33.9524 12.2971 33.9524 12.355C33.9524 12.4129 33.9677 12.4698 33.9966 12.52C34.0274 12.5714 34.0716 12.6134 34.1244 12.6416C34.1773 12.6698 34.2368 12.6831 34.2966 12.68C35.8352 12.6871 37.3182 13.2561 38.4666 14.28C36.9466 14.41 33.5166 14.9 32.6366 16.57C32.6029 16.624 32.5851 16.6864 32.5851 16.75C32.5851 16.8136 32.6029 16.876 32.6366 16.93C32.6723 16.9847 32.7245 17.0268 32.7855 17.0501C32.8466 17.0735 32.9135 17.0769 32.9766 17.06C33.6006 16.9346 34.2455 16.96 34.8577 17.1339C35.4699 17.3078 36.0318 17.6253 36.4966 18.06C35.5342 18.077 34.5925 18.3417 33.7622 18.8286C32.9319 19.3156 32.2412 20.0083 31.7566 20.84C31.7249 20.8929 31.7081 20.9533 31.7081 21.015C31.7081 21.0766 31.7249 21.1371 31.7566 21.19C31.7911 21.2419 31.8391 21.2834 31.8956 21.3098C31.952 21.3363 32.0146 21.3467 32.0766 21.34C33.0216 21.2747 33.967 21.461 34.8166 21.88C33.1181 23.5227 31.8271 25.5397 31.0466 27.77C30.3366 22.97 28.1166 6.82 35.7066 3.03L35.6266 3.01999ZM22.8566 22.52C23.6653 21.56 24.7247 20.8434 25.9166 20.45C25.9766 20.4328 26.0308 20.3995 26.0731 20.3537C26.1154 20.3078 26.1443 20.2512 26.1566 20.19C26.1663 20.1284 26.1594 20.0653 26.1365 20.0073C26.1137 19.9493 26.0757 19.8984 26.0266 19.86C25.0369 19.118 23.8713 18.6458 22.6442 18.4898C21.4171 18.3338 20.1705 18.4993 19.0266 18.97C19.8366 16.47 22.6866 15.97 22.8166 15.91C22.8805 15.9018 22.9405 15.8745 22.9887 15.8317C23.0369 15.7889 23.071 15.7325 23.0866 15.67C23.1013 15.6071 23.0989 15.5415 23.0795 15.4799C23.0602 15.4183 23.0246 15.3631 22.9766 15.32C21.1166 13.76 16.6866 14.97 14.9766 15.52C15.8138 13.665 17.3264 12.1989 19.2066 11.42C19.2635 11.4007 19.314 11.3664 19.3528 11.3206C19.3915 11.2747 19.4171 11.2192 19.4266 11.16C19.4368 11.1017 19.4321 11.0418 19.4129 10.9858C19.3936 10.9298 19.3605 10.8797 19.3166 10.84C17.0366 8.89 12.0766 9.72 9.9766 10.19C11.269 8.50248 12.9688 7.17083 14.9166 6.31998C14.9729 6.29981 15.0229 6.26516 15.0615 6.21951C15.1001 6.17386 15.126 6.11885 15.1366 6.06C15.1489 6.0017 15.1451 5.94117 15.1257 5.88483C15.1064 5.82849 15.0721 5.77843 15.0266 5.73999C12.3166 3.45999 5.52662 4.06997 3.02662 4.37997C6.80662 0.719974 13.0266 0.73999 13.0866 0.73999C24.0066 1.57999 29.1766 22.33 30.3566 27.86C28.3423 25.501 25.7811 23.6711 22.8966 22.53L22.8566 22.52ZM22.7066 31.77C22.4411 30.7876 22.4411 29.7524 22.7066 28.77C22.7252 28.7106 22.7266 28.6472 22.7107 28.587C22.6947 28.5268 22.6622 28.4724 22.6166 28.43C22.5731 28.3862 22.5182 28.3555 22.4581 28.3413C22.398 28.3272 22.3351 28.3302 22.2766 28.35C21.3074 28.6954 20.4432 29.2843 19.7672 30.0602C19.0912 30.836 18.6261 31.7726 18.4166 32.78C18.0464 32.1973 17.823 31.5336 17.7655 30.8456C17.708 30.1577 17.8182 29.466 18.0866 28.83C18.1206 28.778 18.1387 28.7172 18.1387 28.655C18.1387 28.5928 18.1206 28.532 18.0866 28.48C18.0438 28.4319 17.9881 28.3969 17.9261 28.3792C17.8642 28.3615 17.7984 28.3618 17.7366 28.38C15.7966 28.95 14.5966 32.5 14.1666 34.03C13.3004 32.612 12.9938 30.9219 13.3066 29.29C13.319 29.2325 13.3163 29.1729 13.2988 29.1168C13.2813 29.0607 13.2495 29.0102 13.2066 28.97C13.1654 28.926 13.1122 28.895 13.0535 28.8808C12.9949 28.8666 12.9335 28.8698 12.8766 28.89C10.4966 29.58 8.80663 33.29 8.12663 35.06C7.57637 33.4188 7.43562 31.668 7.71662 29.96C7.7332 29.902 7.73359 29.8406 7.71772 29.7824C7.70185 29.7242 7.67035 29.6715 7.62663 29.63C7.58403 29.588 7.53082 29.5584 7.4727 29.5443C7.41457 29.5302 7.3537 29.5322 7.29661 29.55C4.48661 30.39 1.8266 35.25 0.816598 37.28C0.086598 32.99 2.90658 28.73 2.92658 28.7C4.62658 26.5 7.3566 25.51 10.4766 25.24C17.5266 24.64 26.4766 27.76 29.7866 29.01C27.2401 29.3515 24.8124 30.2979 22.7066 31.77ZM28.5066 29.92L28.3366 30.08H28.0366L28.5066 29.92ZM24.8766 33.92C24.8437 33.5357 24.887 33.1488 25.004 32.7813C25.121 32.4138 25.3094 32.073 25.5584 31.7785C25.8074 31.484 26.1121 31.2416 26.455 31.0651C26.7979 30.8886 27.1723 30.7815 27.5566 30.75H27.8566V30.8C27.8566 30.85 27.8066 30.91 27.7766 30.96C27.7082 31.0962 27.6481 31.2365 27.5966 31.38L27.5366 31.59C27.4961 31.7309 27.4661 31.8746 27.4466 32.02V32.21C27.4266 32.4262 27.4266 32.6438 27.4466 32.86C27.462 33.0421 27.492 33.2227 27.5366 33.4C27.5366 33.46 27.5366 33.52 27.5866 33.58L27.7066 33.92L27.7966 34.11C27.8439 34.2098 27.8974 34.3067 27.9566 34.4L28.0766 34.59C28.1343 34.6775 28.1978 34.761 28.2666 34.84L28.4166 35.01C28.4882 35.0916 28.565 35.1684 28.6466 35.24L28.8166 35.38C28.9023 35.4522 28.9925 35.519 29.0866 35.58L29.2566 35.69C29.4007 35.7719 29.5512 35.8421 29.7066 35.9C29.2445 36.2925 28.6709 36.5303 28.0666 36.58C27.6747 36.6169 27.2795 36.5748 26.9042 36.4561C26.5289 36.3375 26.1813 36.1446 25.8819 35.8891C25.5826 35.6336 25.3375 35.3205 25.1614 34.9685C24.9853 34.6165 24.8816 34.2328 24.8566 33.84L24.8766 33.92ZM54.0266 78.21C54.2819 78.8583 54.3832 79.5571 54.3225 80.2512C54.2617 80.9453 54.0406 81.6159 53.6766 82.21C52.3666 84.49 48.4066 87.42 37.0066 88.4C23.0066 89.59 19.1766 86.11 18.1266 83.92C17.7747 83.2377 17.6114 82.4738 17.6536 81.7073C17.6958 80.9408 17.9419 80.1995 18.3666 79.56C18.9542 78.8919 19.4395 78.1404 19.8066 77.33C20.8066 75.33 21.8566 73.27 28.6166 71.16C28.4866 71.67 28.3466 72.16 28.2066 72.7C28.0416 73.3014 28.0559 73.9379 28.2478 74.5313C28.4397 75.1247 28.8007 75.649 29.2866 76.04C30.2862 76.8369 31.4331 77.429 32.6616 77.7824C33.8902 78.1359 35.1763 78.2438 36.4466 78.1C37.2234 78.0338 37.9891 77.8727 38.7266 77.62C39.8594 77.2635 40.8655 76.5883 41.6246 75.6749C42.3836 74.7616 42.8634 73.6489 43.0066 72.47V72.4C43.0066 72.19 42.9166 71.15 42.7566 69.54C45.1939 69.9352 47.496 70.9261 49.4585 72.4246C51.421 73.923 52.9833 75.8828 54.0066 78.13L54.0266 78.21ZM37.1666 32.01C37.1995 32.3935 37.1566 32.7797 37.0402 33.1465C36.9238 33.5134 36.7363 33.8538 36.4883 34.1481C36.2404 34.4425 35.9369 34.6852 35.5951 34.8622C35.2534 35.0393 34.8801 35.1473 34.4966 35.18C34.1612 35.2125 33.8226 35.1854 33.4966 35.1C33.5566 35.05 33.5966 34.99 33.6566 34.93L33.7366 34.84C33.8266 34.73 33.9166 34.61 33.9966 34.49C34.0666 34.38 34.1266 34.26 34.1866 34.15L34.2466 34.02C34.2466 33.93 34.3166 33.84 34.3466 33.74C34.3766 33.64 34.3466 33.64 34.3966 33.59C34.4258 33.4982 34.4492 33.4047 34.4666 33.31V33.16V32.86C34.4712 32.8134 34.4712 32.7666 34.4666 32.72C34.4766 32.5702 34.4766 32.4198 34.4666 32.27C34.4666 32.12 34.4666 31.98 34.3966 31.83C34.3266 31.68 34.3966 31.74 34.3966 31.69C34.3966 31.64 34.3466 31.5 34.3166 31.41L34.2566 31.25C34.2241 31.1649 34.1874 31.0814 34.1466 31C34.1239 30.948 34.0971 30.8978 34.0666 30.85C34.0666 30.77 33.9766 30.69 33.9266 30.61L33.8366 30.48C33.7753 30.3867 33.7049 30.2996 33.6266 30.22L33.5666 30.14C33.4716 30.0383 33.3715 29.9415 33.2666 29.85L33.1466 29.76L32.9766 29.62C33.2748 29.4895 33.5923 29.4084 33.9166 29.38C34.6821 29.2952 35.4502 29.5153 36.0546 29.9925C36.6591 30.4697 37.0514 31.1657 37.1466 31.93L37.1666 32.01ZM55.7066 20.01C55.6477 20.0154 55.5911 20.0357 55.5421 20.0689C55.4932 20.1021 55.4534 20.1472 55.4266 20.2C55.3977 20.252 55.3825 20.3105 55.3825 20.37C55.3825 20.4295 55.3977 20.488 55.4266 20.54C56.4269 22.2075 56.9973 24.0975 57.0866 26.04C55.7166 24.54 52.4566 21.34 49.7166 21.58C49.6586 21.5841 49.6028 21.604 49.5552 21.6375C49.5076 21.671 49.4701 21.7168 49.4466 21.77C49.4177 21.822 49.4026 21.8805 49.4026 21.94C49.4026 21.9995 49.4177 22.058 49.4466 22.11C50.4283 23.6905 50.7849 25.5805 50.4466 27.41C49.4466 26.05 46.7266 22.82 44.4966 23.02C44.4317 23.0229 44.3691 23.0454 44.3173 23.0847C44.2655 23.1241 44.2269 23.1782 44.2066 23.24C44.182 23.2994 44.1764 23.365 44.1908 23.4277C44.2051 23.4904 44.2386 23.5472 44.2866 23.59C44.8289 24.1446 45.2259 24.8245 45.4422 25.5695C45.6585 26.3144 45.6875 27.1012 45.5266 27.86C44.9056 26.9115 44.052 26.1378 43.0472 25.6127C42.0424 25.0875 40.9199 24.8284 39.7866 24.86C39.7234 24.864 39.6624 24.8846 39.6098 24.9197C39.5571 24.9549 39.5146 25.0032 39.4866 25.06C39.462 25.1173 39.4537 25.1803 39.4625 25.242C39.4714 25.3037 39.497 25.3619 39.5366 25.41C40.2216 26.3319 40.637 27.4258 40.7366 28.57C38.8745 28.1058 36.9478 27.9571 35.0366 28.13C34.1105 28.2154 33.1916 28.3658 32.2866 28.58C36.2866 24.93 51.1366 12.15 59.7766 17.32C59.8266 17.32 64.5166 20.63 65.4466 25.39C63.7066 23.69 58.9366 19.68 55.7066 19.96V20.01Z" fill="#E5E5E5"/>
</svg>
