<svg width="42" height="48" viewBox="0 0 42 48" fill="none" xmlns="http://www.w3.org/2000/svg">
<path d="M18.4403 0.103802C12.377 0.713886 6.79244 4.10219 3.32905 9.2832C1.6959 11.7329 0.466352 15.1212 0.0909168 18.1998C-0.0498716 19.373 -0.0217139 21.5881 0.137846 22.5361C1.15152 28.3084 6.86753 36.4554 16.0469 45.203C17.9335 46.9957 18.3559 47.3524 18.9472 47.6527C19.6136 47.9812 19.698 48 20.5522 48C21.4063 48 21.4907 47.9812 22.1571 47.6527C22.7485 47.3524 23.1708 46.9957 25.0574 45.203C31.0174 39.5245 35.8136 33.7334 38.4604 28.9936C39.7651 26.6471 40.5441 24.6667 40.9289 22.6956C41.1354 21.635 41.173 19.5232 41.0134 18.1998C40.6661 15.3183 39.5961 12.2304 38.1319 9.84636C36.9962 8.00672 35.1284 5.8949 33.4484 4.53394C29.2623 1.17379 23.8184 -0.440578 18.4403 0.103802ZM23.5556 1.6337C28.5208 2.45966 32.9509 5.14402 35.9169 9.13303C37.8973 11.7892 39.0799 14.6707 39.568 18.0121C39.7932 19.6171 39.7182 21.9635 39.3803 23.2212C37.9161 28.7777 32.6787 35.9391 23.9405 44.3207C22.7766 45.4283 21.838 46.2542 21.594 46.3762C21.0308 46.6484 20.402 46.6954 19.8201 46.4983C19.2569 46.3199 17.9992 45.1936 15.2116 42.406C9.2797 36.4835 5.39395 31.4902 3.18826 26.9756C1.81792 24.188 1.40494 22.6299 1.40494 20.3116C1.40494 11.7517 7.45884 4.10219 15.9155 1.97159C16.6289 1.79326 18.1306 1.53046 18.9096 1.45537C19.698 1.38028 22.7015 1.49291 23.5556 1.6337Z" fill="#FFB60A"/>
</svg>
